<?xml version="1.0" standalone="no"?>
<!DOCTYPE svg PUBLIC "-//W3C//DTD SVG 20010904//EN"
 "http://www.w3.org/TR/2001/REC-SVG-20010904/DTD/svg10.dtd">
<svg version="1.0" xmlns="http://www.w3.org/2000/svg"
 width="700.000000pt" height="700.000000pt" viewBox="0 0 700.000000 700.000000"
 preserveAspectRatio="xMidYMid meet">
<metadata>
Created by potrace 1.11, written by Peter Selinger 2001-2013
</metadata>
<g transform="translate(0.000000,700.000000) scale(0.100000,-0.100000)"
fill="#000000" stroke="none">
<path d="M3290 6994 c-19 -2 -87 -9 -150 -15 -583 -55 -1190 -284 -1675 -633
-293 -211 -600 -518 -811 -811 -128 -178 -262 -414 -356 -625 -375 -849 -394
-1832 -51 -2695 277 -697 767 -1286 1405 -1686 148 -92 388 -213 563 -282 863
-343 1846 -324 2695 51 408 181 737 407 1061 731 266 267 446 507 615 823 214
402 344 825 396 1293 17 154 17 556 0 710 -101 905 -513 1696 -1192 2289 -524
457 -1176 745 -1885 832 -122 14 -538 27 -615 18z m1250 -1618 c371 -285 711
-623 968 -963 34 -45 62 -85 62 -88 0 -15 -197 -218 -238 -245 -40 -27 -54
-30 -121 -30 -91 0 -134 -11 -226 -57 -347 -173 -709 -632 -844 -1070 -47
-150 -62 -259 -60 -411 2 -73 -1 -136 -7 -141 -5 -4 -52 -46 -104 -91 -52 -46
-109 -96 -126 -112 l-30 -28 -75 57 c-225 173 -420 334 -612 507 l-77 68 -247
-234 c-563 -532 -585 -551 -759 -669 -91 -61 -261 -176 -376 -255 -116 -79
-215 -144 -220 -144 -10 0 107 174 380 568 153 220 160 229 532 625 l378 401
-77 86 c-300 329 -581 644 -581 651 0 4 64 67 141 141 101 94 148 132 163 131
95 -10 282 -2 366 16 448 93 935 408 1192 771 85 121 118 213 118 331 l0 72
138 132 137 133 50 -36 c28 -20 97 -72 155 -116z"/>
</g>
</svg>
