<?xml version="1.0" encoding="utf-8"?>
<!-- Generator: Adobe Illustrator 21.1.0, SVG Export Plug-In . SVG Version: 6.00 Build 0)  -->
<svg version="1.1" id="Layer_1" xmlns="http://www.w3.org/2000/svg" xmlns:xlink="http://www.w3.org/1999/xlink" x="0px" y="0px"
	 viewBox="0 0 50 49.1" style="enable-background:new 0 0 50 49.1;" xml:space="preserve">
<style type="text/css">
	.st0{opacity:0.2;}
</style>
<path class="st0" d="M35,0c5.8,4.1,10.9,8.8,15,14.6c-0.9,0.9-1.7,1.7-2.5,2.5c-0.5,0.5-0.9,0.8-1.7,0.7c-1.4-0.2-2.6,0.5-3.8,1.2
	c-2.2,1.3-4,3.2-5.6,5.2c-1.9,2.6-3.4,5.4-4.2,8.5c-0.4,1.6-0.5,3.3-0.3,5c0,0.1,0,0.3-0.1,0.4c-1.1,0.9-2.1,1.9-3.2,2.8
	c-3.2-2.4-6.3-4.9-9.2-7.6c-0.6,0.5-1.1,1-1.7,1.5c-2.7,2.6-5.4,5.1-8.2,7.7c-0.7,0.7-1.6,1.1-2.4,1.7C5,45.9,2.6,47.4,0.3,49
	c-0.1,0-0.2,0.1-0.3,0.1c0.2-0.2,0.3-0.5,0.5-0.7c2-2.9,3.9-5.7,5.9-8.6c0.7-1,1.6-1.8,2.5-2.7c2.3-2.4,4.6-4.9,6.8-7.3v-0.1
	c-2.7-2.9-5.3-5.9-8-8.8c1.1-1.1,2.2-2.2,3.3-3.3c0.1-0.1,0.2-0.1,0.3-0.1c2.4,0.4,4.8,0,7.1-0.8c4.5-1.6,8.3-4.2,11.3-7.9
	c0.9-1.1,1.7-2.3,1.9-3.7c0.1-0.5,0-1,0-1.5c0-0.1,0-0.3,0.1-0.3C32.8,2.2,33.9,1.1,35,0z"/>
</svg>
