<?xml version="1.0" encoding="utf-8"?>
<!-- Generator: Adobe Illustrator 21.1.0, SVG Export Plug-In . SVG Version: 6.00 Build 0)  -->
<svg version="1.1" id="Layer_1" xmlns="http://www.w3.org/2000/svg" xmlns:xlink="http://www.w3.org/1999/xlink" x="0px" y="0px"
	 viewBox="0 0 92 90" style="enable-background:new 0 0 92 90;" xml:space="preserve">
<style type="text/css">
	.st0{fill:#FFFFFF;}
</style>
<g>
	<path class="st0" d="M58.5,74.6c-1.4,0-2.5,1.1-2.5,2.5V90h5.1V79.7h22.5c1.3,0,2.4-0.9,2.5-2.2l3.7-29c0.1-0.7-0.1-1.5-0.6-2
		c-0.5-0.5-1.2-0.9-1.9-0.9H61.1v-16c0-7.7,1.8-11.6,11.9-11.6l15.4,0c1.4,0,2.5-1.1,2.5-2.5V0.1h-5.1V13l-12.9,0
		C58,13.1,56,21.5,56,29.7v18.5c0,1.4,1.1,2.5,2.5,2.5h25.9l-3.1,23.9H58.5z"/>
	<path class="st0" d="M3.4,79.7H26V90H31V77.1c0-1.4-1.1-2.5-2.5-2.5H5.9V50.7h22.6c1.4,0,2.5-1.1,2.5-2.5V26.8
		c0-11.5,3.4-20.5,9.7-26.7H34c-5.2,6.8-8,15.9-8,26.7v18.8H3.4c-1.4,0-2.5,1.1-2.5,2.5v29C0.8,78.5,2,79.7,3.4,79.7z"/>
</g>
</svg>
